<svg width="461" height="34" viewBox="0 0 461 34" fill="none" xmlns="http://www.w3.org/2000/svg">
<g clip-path="url(#clip0)">
<path d="M85.9545 6.08842C87.0615 6.08842 87.3778 5.93028 87.615 5.77214C87.8522 5.614 88.2475 5.37679 88.2475 4.42796C88.2475 4.42796 88.2475 4.42796 88.2475 4.34889C88.2475 4.26982 88.2475 4.26982 88.2475 4.19075C88.2475 3.40005 88.0894 2.76749 88.0103 2.60935C87.694 2.29307 86.8243 3.0047 83.3452 3.0047H59.0708C56.3034 3.0047 55.3545 2.29307 55.0382 2.60935C54.8801 2.76749 54.801 3.40005 54.801 4.19075C54.801 4.26982 54.801 4.26982 54.801 4.34889C54.801 4.34889 54.801 4.34889 54.801 4.42796C54.801 5.29772 55.1964 5.614 55.4336 5.77214C55.6708 5.93028 55.9871 6.08842 57.094 6.08842H85.9545Z" fill="#1A1A1A"/>
<path d="M87.5359 24.4327C88.6429 24.4327 88.9592 24.2745 89.1964 24.1164C89.4336 23.9582 89.8289 23.721 89.8289 22.7722C89.8289 22.7722 89.8289 22.7722 89.8289 22.6931C89.8289 22.6141 89.8289 22.6141 89.8289 22.535C89.8289 21.7443 89.6708 21.1117 89.5917 20.9536C89.2754 20.6373 88.4057 21.3489 84.9266 21.3489H56.9359C54.1685 21.3489 53.2196 20.6373 52.9033 20.9536C52.7452 21.1117 52.6661 21.7443 52.6661 22.535C52.6661 22.6141 52.6661 22.6141 52.6661 22.6931C52.6661 22.6931 52.6661 22.6931 52.6661 22.7722C52.6661 23.642 53.0615 23.9582 53.2987 24.1164C53.5359 24.2745 53.8522 24.4327 54.9592 24.4327H87.5359Z" fill="#1A1A1A"/>
<path d="M82.0801 7.43262C81.6847 7.43262 79.7871 7.66983 71.0894 7.66983C62.3917 7.66983 60.5731 7.43262 60.0987 7.43262C58.5964 7.43262 58.4382 7.90704 58.4382 9.40936V13.7582C58.4382 14.9442 58.9126 15.2605 60.1778 15.2605C60.1778 15.2605 67.9266 15.2605 71.0894 15.2605C74.2522 15.2605 82.001 15.2605 82.001 15.2605C83.2661 15.2605 83.7406 14.9442 83.7406 13.7582V9.64657C83.7406 8.06518 83.5824 7.43262 82.0801 7.43262ZM80.2615 12.0977C80.2615 12.414 80.1824 12.414 79.8661 12.414C79.5499 12.414 77.9685 12.5722 71.1685 12.5722C64.3685 12.5722 62.7871 12.4931 62.4708 12.414C62.1545 12.414 62.0754 12.3349 62.0754 12.0977V10.7535C62.0754 10.2791 62.0754 10.121 62.6289 10.2001C64.1313 10.4373 77.1778 10.3582 79.7871 10.2001C80.3406 10.121 80.3405 10.3582 80.3405 10.7535V12.0977H80.2615Z" fill="#1A1A1A"/>
<path d="M85.6382 17.8697C85.6382 17.1581 85.1638 16.6837 84.6103 16.5255C83.7405 16.3674 82.5545 16.6837 80.6568 16.6837H60.494C57.7266 16.6837 56.7777 15.972 56.4614 16.2883C56.3033 16.4464 56.2242 17.079 56.2242 17.8697C56.2242 17.9488 56.2242 17.9488 56.2242 18.0278C56.2242 18.0278 56.2242 18.0278 56.2242 18.1069C56.2242 18.9767 56.6196 19.293 56.8568 19.4511C57.094 19.6092 57.4103 19.7674 58.5173 19.7674H81.5266C81.6056 19.7674 81.7638 19.8464 81.6847 20.0046L81.2103 25.6976C81.2103 25.8557 81.0521 26.0139 80.894 26.0139C80.4986 26.0139 80.0242 26.093 79.4707 26.093H59.8614C57.094 26.093 56.1452 25.3813 55.8289 25.6976C55.6707 25.8557 55.5917 26.4883 55.5917 27.279C55.5917 27.3581 55.5917 27.3581 55.5917 27.4371C55.5917 27.4371 55.5917 27.4371 55.5917 27.5162C55.5917 28.386 55.987 28.7023 56.2242 28.8604C56.4614 29.0185 56.7777 29.1767 57.8847 29.1767H83.108C84.2149 29.1767 84.3731 28.5441 84.4521 27.9116C84.4521 27.9116 85.3219 20.1627 85.3219 19.6092C85.401 18.9767 85.6382 18.5023 85.6382 17.8697Z" fill="#1A1A1A"/>
<path d="M73.0662 0C72.6708 0 71.6429 0 70.7732 0C69.8243 0 69.1127 0.869767 69.3499 2.29302C69.429 2.76744 69.508 3.4 69.508 3.63721C69.508 3.63721 69.508 30.3628 69.508 30.6791C69.508 31.0744 69.1918 30.9953 68.5592 30.9953C67.9266 30.9953 66.8197 30.9953 66.1871 30.8372C65.8708 30.7581 65.7127 30.9163 65.7918 31.2326C65.8708 31.707 65.9499 33.1302 66.8987 33.5256C67.8476 33.9209 69.5871 33.8419 71.0894 33.8419C71.9592 33.8419 72.7499 33.8419 73.0662 33.1302C73.3825 32.5767 73.0662 31.9442 73.0662 30.7581C73.0662 29.5721 73.0662 3.55814 73.0662 3.55814C73.0662 3.24186 73.0662 3.08372 73.1453 2.6093C73.4615 0.948837 74.1732 1.10698 74.3313 0.553488C74.4894 0 73.4615 0 73.0662 0Z" fill="#1A1A1A"/>
<path d="M121.062 14.8652C114.894 14.0745 111.494 13.1256 111.494 10.2001C111.494 6.72099 116.001 5.21867 120.508 5.21867C122.248 5.21867 124.066 5.45588 125.727 5.77216C127.545 6.1675 129.206 6.64192 130.234 6.9582C130.945 7.19541 131.657 7.19541 132.131 6.56285C132.685 5.85122 133.317 4.98146 132.922 4.50704C132.606 4.03262 131.815 4.42797 129.917 3.87448C127.229 3.08378 124.699 1.97681 120.587 1.97681C113.155 1.97681 108.331 5.21867 108.331 10.2791C108.331 16.6838 115.843 17.5535 120.745 18.1861C126.28 18.8977 132.448 19.8466 132.448 23.4047C132.448 24.5908 132.21 28.228 122.01 28.228C117.899 28.228 114.103 26.5675 111.731 25.8559C110.387 25.4605 109.201 25.3024 108.173 26.3303C107.62 26.8838 107.383 27.5954 107.541 27.9908C107.699 28.5442 108.252 27.9908 109.992 28.7024C112.048 29.5722 117.345 31.3117 122.01 31.3117C130.787 31.3117 135.769 28.6233 135.769 23.0094C135.689 16.7629 125.885 15.4977 121.062 14.8652Z" fill="black"/>
<path d="M185.503 1.89771C175.778 1.89771 168.424 8.14422 168.424 16.5256C168.424 25.3024 175.462 31.3907 185.503 31.3907C195.545 31.3907 202.582 25.3024 202.582 16.5256C202.662 8.14422 195.308 1.89771 185.503 1.89771ZM185.503 28.1489C177.438 28.1489 172.141 23.2465 172.141 16.5256C172.141 10.0419 177.517 5.13957 185.503 5.13957C193.41 5.13957 198.866 10.0419 198.866 16.5256C198.866 23.2465 193.568 28.1489 185.503 28.1489Z" fill="black"/>
<path d="M392.824 31.1536C401.601 31.1536 410.062 27.9117 410.062 16.3675C410.062 5.29777 401.206 2.05591 392.824 2.05591C384.522 2.05591 384.917 2.05591 383.336 2.05591C381.913 2.05591 381.755 3.24195 381.755 4.82335V29.7303C381.755 30.9164 382.229 31.1536 383.415 31.1536C383.336 31.1536 383.969 31.1536 392.824 31.1536ZM389.978 27.9117H385.471C385.234 27.9117 385.076 27.8327 385.076 27.5954V5.93033C385.076 5.53498 385.155 5.37684 385.55 5.37684H389.899C399.624 5.37684 406.662 7.90707 406.662 16.4466C406.741 24.9861 399.703 27.9117 389.978 27.9117Z" fill="black"/>
<path d="M165.499 3.79551C165.499 3.00482 165.341 2.37226 165.262 2.29319C164.945 1.97691 164.076 2.68854 160.755 2.68854H143.201C140.513 2.68854 139.643 1.97691 139.327 2.29319C139.169 2.45133 139.089 3.00482 139.089 3.79551C139.089 3.87458 139.089 3.87458 139.089 3.95365C139.089 3.95365 139.089 3.95365 139.089 4.03272C139.089 4.90249 139.485 5.21877 139.722 5.37691C139.959 5.53505 140.276 5.69319 141.382 5.69319H149.843C150.634 5.69319 150.634 5.9304 150.634 6.56296V27.2792C150.634 30.9164 149.606 30.2839 149.131 30.8374C148.657 31.3118 149.527 31.3909 150.634 31.3909H154.113C155.22 31.3909 156.089 31.3118 155.615 30.8374C155.141 30.2839 154.113 30.9164 154.113 27.2792V6.40482C154.113 6.16761 154.034 5.61412 154.745 5.61412H163.364C164.471 5.61412 164.708 5.45598 165.024 5.29784C165.262 5.1397 165.657 4.90249 165.657 4.03272C165.657 4.03272 165.657 4.03272 165.657 3.95365C165.499 3.95365 165.499 3.87458 165.499 3.79551Z" fill="black"/>
<path d="M264.099 2.21397C261.569 2.21397 260.383 4.03258 259.908 4.74421C255.085 11.8605 253.899 13.6 253.583 13.9954C253.266 14.3907 253.029 14.3907 252.792 13.9954C250.973 11.4651 250.815 10.9907 246.545 4.82328C245.755 3.63723 244.569 2.21397 243.145 2.21397C242.355 2.21397 240.378 2.1349 240.299 2.53025C240.062 3.24188 241.485 2.9256 243.145 5.77211C243.541 6.48374 249.708 15.2605 251.131 17.3954C251.289 17.6326 251.369 17.9489 251.369 18.1861C251.369 18.1861 251.369 27.3582 251.369 28.7023C251.369 30.1256 250.341 30.2047 249.866 30.6791C249.392 31.1535 250.262 31.2326 251.369 31.2326H251.448H251.764H253.108H253.187H254.531H254.848H254.927C256.034 31.2326 256.824 31.1535 256.429 30.6791C255.955 30.2047 254.927 30.2047 254.927 28.7023C254.927 27.2 254.927 18.1861 254.927 18.1861C254.927 17.8698 255.006 17.6326 255.164 17.3954C256.587 15.3396 262.913 6.16746 263.624 5.06049C265.127 2.9256 266.234 3.24188 265.996 2.53025C265.917 2.1349 264.652 2.21397 264.099 2.21397Z" fill="black"/>
<path d="M235.555 27.8327C234.606 26.1723 229.308 17.5536 229.308 17.5536C232.787 16.6048 234.922 13.7583 234.922 9.80481C234.922 5.3769 231.917 2.21411 227.173 2.21411C222.429 2.21411 216.578 2.21411 211.122 2.21411C210.648 2.21411 209.699 2.37225 209.699 3.71644C209.699 3.71644 209.699 27.8327 209.699 28.7025C209.699 30.0467 208.671 30.2048 208.196 30.7583C207.722 31.2327 208.592 31.3118 209.699 31.3118H213.178C214.285 31.3118 215.155 31.2327 214.68 30.7583C214.206 30.2839 213.178 30.0467 213.178 28.7816C213.178 27.8327 213.178 18.3443 213.178 18.3443C213.178 18.1071 213.336 17.949 213.573 17.949H224.643C225.038 17.949 225.355 18.1862 225.592 18.5025C225.592 18.5025 231.522 28.3071 232.075 29.1769C232.629 30.0467 233.103 30.6792 234.21 30.9955C235.001 31.2327 235.871 31.3118 236.662 31.3118C237.452 31.3118 238.717 31.3118 238.164 30.7583C237.768 30.2048 236.741 29.9676 235.555 27.8327ZM213.02 14.3118V5.93039C213.02 5.69318 213.178 5.45597 213.494 5.45597H227.094C229.308 5.45597 231.601 6.80016 231.601 9.80481C231.601 12.0188 230.731 14.6281 226.62 14.6281H213.336C213.178 14.6281 213.02 14.4699 213.02 14.3118Z" fill="black"/>
<path d="M443.666 1.89771C433.941 1.89771 426.587 8.14422 426.587 16.5256C426.587 25.3024 433.624 31.3907 443.666 31.3907C453.708 31.3907 460.745 25.3024 460.745 16.5256C460.824 8.14422 453.471 1.89771 443.666 1.89771ZM443.666 28.1489C435.601 28.1489 430.303 23.2465 430.303 16.5256C430.303 10.0419 435.68 5.13957 443.666 5.13957C451.573 5.13957 457.029 10.0419 457.029 16.5256C457.029 23.2465 451.731 28.1489 443.666 28.1489Z" fill="black"/>
<path d="M419.629 28.7815C419.629 27.4373 419.629 5.77219 419.629 4.58614C419.629 3.16289 420.657 3.08382 421.131 2.6094C421.606 2.13498 420.736 2.05591 419.629 2.05591H417.89H417.81H416.071C416.071 2.05591 414.173 2.13498 414.569 2.6094C415.043 3.08382 416.071 3.08382 416.071 4.58614C416.071 5.93033 416.071 27.5954 416.071 28.7815C416.071 30.2047 415.043 30.2838 414.569 30.7582C414.094 31.2327 414.964 31.3117 416.071 31.3117H416.15H416.466H417.81H417.89H419.234H419.55H419.629C420.736 31.3117 421.527 31.2327 421.131 30.7582C420.657 30.2838 419.629 30.2838 419.629 28.7815Z" fill="black"/>
<path d="M373.769 2.05591C372.899 2.05591 372.82 2.05591 372.029 2.05591C370.606 2.05591 370.289 3.08382 370.448 4.58614C370.527 5.29777 370.685 12.7303 370.527 18.4233C370.369 24.0373 368.313 28.228 360.01 28.228C351.787 28.228 349.731 24.0373 349.494 18.4233C349.257 12.2559 349.415 6.0094 349.573 4.58614C349.652 3.16289 349.415 2.05591 347.834 2.05591C346.252 2.05591 347.359 2.05591 346.094 2.05591C345.303 2.05591 344.196 2.13498 344.592 2.6094C345.066 3.08382 346.094 2.45126 346.094 3.95358C346.094 4.66521 346.094 10.121 346.094 17.1582C346.094 24.1954 346.885 31.5489 360.01 31.5489C372.82 31.5489 373.927 24.3536 373.927 17.1582C373.927 9.96288 373.927 4.58614 373.927 3.95358C373.927 2.53033 374.955 3.08382 375.429 2.6094C375.903 2.13498 374.638 2.05591 373.769 2.05591Z" fill="black"/>
<path d="M295.885 14.8652C289.717 14.0745 286.317 13.1256 286.317 10.2001C286.317 6.72099 290.824 5.21867 295.331 5.21867C297.071 5.21867 298.889 5.45588 300.55 5.77216C302.369 6.1675 304.029 6.64192 305.057 6.9582C305.769 7.19541 306.48 7.19541 306.955 6.56285C307.508 5.85122 308.141 4.98146 307.745 4.50704C307.429 4.03262 306.638 4.42797 304.741 3.87448C302.052 3.08378 299.522 1.97681 295.41 1.97681C287.978 1.97681 283.155 5.21867 283.155 10.2791C283.155 16.6838 290.666 17.5535 295.569 18.1861C301.103 18.8977 307.271 19.8466 307.271 23.4047C307.271 24.5908 307.034 28.228 296.834 28.228C292.722 28.228 288.927 26.5675 286.555 25.8559C285.21 25.4605 284.024 25.3024 282.996 26.3303C282.443 26.8838 282.206 27.5954 282.364 27.9908C282.522 28.5442 283.076 27.9908 284.815 28.7024C286.871 29.5722 292.169 31.3117 296.834 31.3117C305.61 31.3117 310.592 28.6233 310.592 23.0094C310.592 16.7629 300.787 15.4977 295.885 14.8652Z" fill="black"/>
<path d="M340.085 3.79551C340.085 3.00482 339.927 2.37226 339.848 2.29319C339.531 1.97691 338.662 2.68854 335.341 2.68854H317.787C315.099 2.68854 314.229 1.97691 313.913 2.29319C313.755 2.45133 313.676 3.00482 313.676 3.79551C313.676 3.87458 313.676 3.87458 313.676 3.95365C313.676 3.95365 313.676 3.95365 313.676 4.03272C313.676 4.90249 314.071 5.21877 314.308 5.37691C314.545 5.53505 314.862 5.69319 315.969 5.69319H324.429C325.22 5.69319 325.22 5.9304 325.22 6.56296V27.2792C325.22 30.9164 324.192 30.2839 323.717 30.8374C323.243 31.3118 324.113 31.3909 325.22 31.3909H328.699C329.806 31.3909 330.676 31.3118 330.201 30.8374C329.727 30.2839 328.699 30.9164 328.699 27.2792V6.40482C328.699 6.16761 328.62 5.61412 329.331 5.61412H337.95C339.057 5.61412 339.294 5.45598 339.61 5.29784C339.848 5.1397 340.243 4.90249 340.243 4.03272C340.243 4.03272 340.243 4.03272 340.243 3.95365C340.085 3.95365 340.085 3.87458 340.085 3.79551Z" fill="black"/>
<path d="M18.2708 29.8884V20.5582C18.2708 18.9768 18.1127 17.7117 16.6104 17.7117C16.2941 17.7117 14.5546 17.8698 12.4197 17.9489V9.80471H18.2708C19.3778 9.80471 19.6941 9.64657 19.9313 9.48844C20.1685 9.3303 20.5639 9.09309 20.5639 8.14425C20.5639 8.14425 20.5639 8.14425 20.5639 8.06518C20.5639 7.98611 20.5639 7.98611 20.5639 7.90704C20.5639 7.11634 20.4057 6.48378 20.3267 6.32564C20.0104 6.00937 19.1406 6.72099 15.6615 6.72099H12.4987V4.3489C12.4987 3.47913 12.4987 3.32099 12.5778 2.84658C12.815 1.26518 13.5267 1.34425 13.6848 0.790761C13.8429 0.158203 12.815 0.158203 12.4197 0.158203C12.0243 0.158203 10.9964 0.158203 10.1267 0.158203C9.17781 0.158203 8.46619 1.02797 8.7034 2.45123C8.78246 2.92564 8.86154 3.5582 8.86154 4.3489V6.72099H5.14526C2.45688 6.80006 1.42898 6.08844 1.19177 6.40472C1.03363 6.48378 0.875488 7.11634 0.875488 7.98611C0.875488 8.06518 0.875488 8.06518 0.875488 8.14425C0.875488 8.14425 0.875488 8.14425 0.875488 8.22332C0.875488 9.09309 1.27084 9.40937 1.50805 9.56751C1.74526 9.72565 2.06153 9.88378 3.16851 9.88378H8.86154V18.028C6.72665 17.9489 4.82898 17.7908 4.43363 17.7908C2.9313 17.7908 2.77316 19.0559 2.77316 20.6373V29.9675C2.77316 31.1536 3.24758 31.4698 4.5127 31.4698C4.5127 31.4698 7.35921 31.4698 10.522 31.4698C13.6848 31.4698 16.5313 31.4698 16.5313 31.4698C17.7964 31.3908 18.2708 31.0745 18.2708 29.8884ZM14.7918 27.6745C14.7918 27.9908 14.7127 27.9908 14.3964 27.9908C14.3964 27.9908 12.4987 28.228 10.6011 28.228C8.7034 28.228 6.80572 27.9908 6.80572 27.9908C6.48944 27.9908 6.41037 27.9117 6.41037 27.6745V21.7442C6.41037 21.2698 6.3313 21.1908 6.96386 21.1908C7.59642 21.1908 13.7639 21.1908 14.3173 21.1908C14.8708 21.1908 14.8708 21.3489 14.8708 21.7442V27.6745H14.7918Z" fill="#1A1A1A"/>
<path d="M39.4615 31.0745C35.9824 28.4652 33.215 25.6977 30.922 22.8512C33.1359 19.2931 35.1917 14.9443 36.2197 9.80472H36.6941C37.801 9.80472 38.1173 9.64658 38.3545 9.48844C38.5917 9.3303 38.9871 9.09309 38.9871 8.14425C38.9871 8.14425 38.9871 8.14425 38.9871 8.06518C38.9871 7.98611 38.9871 7.98611 38.9871 7.90704C38.9871 7.11634 38.829 6.48378 38.6708 6.32565C38.3545 6.00937 37.4848 6.72099 34.0057 6.72099H26.5731C26.6522 6.24658 26.6522 5.69309 26.6522 5.1396C26.6522 3.63727 26.6522 3.32099 26.7313 2.84658C27.0476 1.18611 27.7592 1.34425 27.9173 0.790761C28.0755 0.158203 27.0476 0.158203 26.6522 0.158203C26.2569 0.158203 25.229 0.158203 24.3592 0.158203C23.4103 0.158203 22.6987 1.02797 22.9359 2.45123C23.015 2.92564 23.015 4.50704 23.015 5.9303C23.015 10.121 20.6429 11.9396 18.8243 13.2838C18.2708 13.6791 17.5592 13.8373 17.2429 13.9954C17.0848 14.0745 17.0057 14.3117 17.1638 14.4698C17.1638 14.4698 17.4801 14.8652 18.0336 15.1024C18.508 15.2605 20.0103 15.5768 21.4336 14.628C21.5917 14.4698 21.829 14.3908 21.9871 14.2326C22.6987 15.9722 24.3592 19.2931 26.7313 22.8512C24.9127 25.8559 22.2243 29.0977 19.2197 32.0233C18.429 32.7349 17.322 33.0512 17.5592 33.4466C17.7173 33.7629 18.3499 33.8419 19.8522 33.6838C21.4336 33.5256 22.5406 32.7349 23.1731 32.1024C24.3592 30.9954 26.4941 28.7815 28.7871 25.6977C30.8429 28.3861 33.215 31.1536 35.9034 33.3675C36.615 34.0001 37.0894 34.0791 37.4848 33.6838L39.1452 31.9443C39.7778 31.628 39.7778 31.3908 39.4615 31.0745ZM32.3452 9.80472C31.6336 13.2047 30.3685 16.5256 28.629 19.7675C26.8894 17.1582 25.4662 14.5489 24.4383 12.0187C24.9127 11.3861 25.3871 10.6745 25.7824 9.80472H32.3452Z" fill="#1A1A1A"/>
</g>
<defs>
<clipPath id="clip0">
<rect width="459.949" height="34" fill="white" transform="translate(0.875488)"/>
</clipPath>
</defs>
</svg>
