<?xml version="1.0" encoding="utf-8"?>
<!-- Generator: Adobe Illustrator 25.2.3, SVG Export Plug-In . SVG Version: 6.00 Build 0)  -->
<svg version="1.1" id="圖層_1" xmlns="http://www.w3.org/2000/svg" xmlns:xlink="http://www.w3.org/1999/xlink" x="0px" y="0px"
	 viewBox="0 0 62.3 130.1" style="enable-background:new 0 0 62.3 130.1;" xml:space="preserve">
<style type="text/css">
	.st0{fill:none;stroke:#000000;stroke-width:1.6176;}
	.st1{fill:none;stroke:#000000;stroke-width:1.6176;stroke-miterlimit:4;}
</style>
<path d="M43.8,2.9H14l0.3,1.2h15.3v30.9h0.5c1.2,0,2.1-0.6,2.1-0.9V12.6c4.2,2.3,9.6,6.1,11.7,9.3c3.7,1.5,3.9-5.9-11.7-10.1V4.1
	h16.5c0.6,0,1-0.2,1.1-0.6c-1.5-1.3-3.8-3.1-3.8-3.1L43.8,2.9z M44.1,58.8v5c-0.9-0.9-2.2-1.9-2.2-1.9l-1.3,1.6h-3v-2.4
	c0.7-0.2,1-0.5,1.1-0.9l-3.3-0.4v3.7h-5.8v-4.7H44.1z M40.7,68.5h-3v-3.9h5.7c0.3,0,0.6-0.1,0.7-0.2v4.3c-0.9-0.9-2.1-1.9-2.1-1.9
	L40.7,68.5z M29.7,68.5v-1.1v-3.7l0.2,0.9h5.6v3.9H29.7z M25.2,85.3c3.9-4.6,4.4-11.1,4.5-16.3l0.2,0.7h13.7c0.2,0,0.4,0,0.6-0.1
	v13.2c0,0.6-0.2,0.8-0.9,0.8c-0.7,0-4.3-0.3-4.3-0.3v0.6c1.6,0.2,2.5,0.5,3.1,0.9c0.5,0.3,0.7,0.9,0.8,1.6c3.3-0.3,3.7-1.4,3.7-3.4
	V59.3c0.8-0.2,1.4-0.5,1.7-0.8L45,56.1l-1.3,1.6H30.2l-2.8-1.2v11.1c0,5.9-0.1,12.3-2.7,17.3L25.2,85.3z M33.2,79.4v-5.6H40v5.6
	H33.2z M40.3,82c0.7,0,1.8-0.5,1.8-0.8V74c0.5-0.1,1-0.3,1.2-0.6l-2.4-2l-1.2,1.2h-6.3l-2.3-1v11.3h0.3c0.9,0,1.8-0.5,1.8-0.7v-1.7
	H40V82H40.3z M16.2,56.2c1.6,1.4,3.5,3.9,4,5.9c2.6,1.8,4.5-3.6-3.6-6.2L16.2,56.2z M23.6,72.2l-1.5,1.4H19c1.4-2,3.4-4.8,4.5-6.6
	c1,0,1.9-0.2,2.3-0.6l-3-2.6l-1.4,1.5h-7.1l0.3,1.1h6.6c-1.2,2-3.1,4.9-4.4,6.7c-0.6,0.2-1.2,0.4-1.6,0.6l2.1,2l1.1-0.9h3.8
	c-0.5,3-1.7,6.4-3.3,8.8c-1.4,0.9-3.8,3.1-5.4,4.3l2.1,2.7c0.3-0.2,0.3-0.5,0.2-0.8c1-1.6,2.8-3.9,3.6-5c0.3-0.5,0.7-0.5,1.2,0
	c3.5,4.1,7.3,5.2,15.2,5.2H48c0.1-1,0.7-1.8,1.9-2l0-0.5c-4.8,0.2-8.7,0.2-13.3,0.2c-7.6,0-12-0.5-15.4-4c-0.3-0.3-0.5-0.4-0.8-0.5
	c2.1-2.4,3.5-5.6,4.2-8.3c0.9,0,1.2-0.1,1.5-0.4L23.6,72.2z"/>
<line class="st0" x1="0" y1="127.1" x2="62.3" y2="127.1"/>
<line class="st1" x1="48.8" y1="113.9" x2="61.7" y2="126.8"/>
</svg>
