<?xml version="1.0" encoding="utf-8"?>
<!-- Generator: Adobe Illustrator 25.2.3, SVG Export Plug-In . SVG Version: 6.00 Build 0)  -->
<svg version="1.1" xmlns="http://www.w3.org/2000/svg" xmlns:xlink="http://www.w3.org/1999/xlink" x="0px" y="0px"
	 viewBox="0 0 29 30" style="enable-background:new 0 0 29 30;" xml:space="preserve">
<style type="text/css">
	.st0{display:none;}
	.st1{display:inline;opacity:0.5;stroke:#000000;stroke-miterlimit:10;}
	.st2{fill:#F8F8F9;}
	.st3{fill:none;stroke:#F8F8F9;}
</style>
<g id="圖層_2" class="st0">
	<rect x="-13.6" y="-8.2" class="st1" width="57.2" height="46"/>
</g>
<g id="圖層_1">
	<path class="st2" d="M22.1,15.7c0.2-0.2,0.2-0.5,0-0.7L19,11.8c-0.2-0.2-0.5-0.2-0.7,0c-0.2,0.2-0.2,0.5,0,0.7l2.8,2.8l-2.8,2.8
		c-0.2,0.2-0.2,0.5,0,0.7c0.2,0.2,0.5,0.2,0.7,0L22.1,15.7z M5.1,15.9h16.6v-1H5.1V15.9z"/>
	<path class="st3" d="M28.2,15c0,7.7-6.1,13.9-13.7,13.9C6.9,28.9,0.8,22.7,0.8,15c0-7.7,6.1-13.9,13.7-13.9
		C22.1,1.1,28.2,7.3,28.2,15z"/>
</g>
</svg>
