<svg width="28" height="28" viewBox="0 0 28 28" fill="none" xmlns="http://www.w3.org/2000/svg">
<path d="M20.8816 14.5855C21.0236 14.4436 21.0236 14.2134 20.8816 14.0714L18.5681 11.7579C18.4261 11.6159 18.1959 11.6159 18.054 11.7579C17.912 11.8999 17.912 12.1301 18.054 12.272L20.1104 14.3285L18.054 16.385C17.912 16.5269 17.912 16.7571 18.054 16.8991C18.1959 17.041 18.4261 17.041 18.5681 16.8991L20.8816 14.5855ZM5.18915 14.692H20.6246V13.965H5.18915V14.692Z" fill="black"/>
<path d="M26.6924 14.0068C26.6924 21.0879 20.9522 26.8282 13.8715 26.8282C6.79072 26.8282 1.05061 21.0879 1.05061 14.0068C1.05061 6.92566 6.79072 1.18531 13.8715 1.18531C20.9522 1.18531 26.6924 6.92566 26.6924 14.0068Z" stroke="black" stroke-width="0.727071"/>
</svg>
