<svg width="85" height="34" viewBox="0 0 85 34" fill="none" xmlns="http://www.w3.org/2000/svg">
<path d="M17.0316 0C7.64578 0 0 7.63158 0 17C0 26.3684 7.64578 34 17.0316 34C26.4175 34 34.0633 26.3684 34.0633 17C34.0633 7.63158 26.4175 0 17.0316 0ZM17.0316 1.36842C23.9392 1.36842 29.8449 5.89474 31.9014 12.1053C31.9541 12.3158 31.7959 12.4737 31.6377 12.4737H17.0316C14.0261 12.4737 10.5986 12.7895 10.5986 15.0526C10.5986 16.6842 13.1824 17 16.4516 17.3684C18.4026 17.5789 22.0937 18 22.0937 18.8947C22.0937 19.4737 20.7227 20.1053 16.8207 20.1053H2.00372C1.7928 20.1053 1.63462 19.9474 1.58189 19.7895C1.4237 18.7895 1.31824 17.7368 1.31824 16.6842C1.52916 8.10526 8.43672 1.36842 17.0316 1.36842ZM17.0316 32.6316C10.0186 32.6316 4.06017 28 2.05645 21.6842C2.05645 21.5789 2.10918 21.4737 2.21464 21.4737H16.8207C19.6681 21.4737 23.4119 21.2105 23.4119 18.8947C23.4119 16.7895 20.09 16.4211 16.5571 16.0526C15.0279 15.8947 12.1805 15.8947 11.9169 15.0526C11.6532 14.3158 13.8151 13.8421 16.9789 13.8421H32.0068C32.2177 13.8421 32.3759 14 32.4287 14.2105C32.5868 15.2105 32.6923 16.2105 32.6923 17.2632C32.5341 25.8421 25.6266 32.6316 17.0316 32.6316Z" fill="#231815"/>
<path d="M85 19.6317C85 19.2106 84.9472 18.9475 84.8418 18.8422C84.6836 18.6843 84.2618 19.0001 82.6799 19.0527C82.7326 18.5791 82.7853 18.2633 82.7853 18.158C82.8381 17.8949 82.9435 17.6843 82.9435 17.3685C82.9435 17.0001 82.7326 16.7896 82.4689 16.737C82.0471 16.6317 81.4671 16.7896 80.5707 16.7896H76.8796C76.8796 16.5791 76.8796 16.3159 76.8796 16.1054C78.6197 16.1054 81.2034 16.1054 81.2034 16.1054C81.8362 16.1054 82.0471 15.9475 82.0471 15.3685V13.3685C82.0471 12.6317 81.9417 12.3159 81.2562 12.3159C81.0453 12.3159 80.307 12.4212 76.8796 12.4212C76.8796 12.158 76.8796 11.8949 76.8796 11.6317H83.1017C83.629 11.6317 83.7872 11.5791 83.8926 11.4738C83.9981 11.4212 84.209 11.2633 84.209 10.8422C84.209 10.7896 84.209 10.7896 84.209 10.737C84.209 10.3159 84.1563 10.0527 84.0508 9.94748C83.8926 9.78959 83.4708 10.158 81.7835 10.158H76.8269C76.8269 10.1054 76.8269 10.0527 76.8269 10.0001C76.9851 9.21064 77.3015 9.26327 77.4069 9.00012C77.4596 8.68433 76.9851 8.68433 76.8269 8.68433C76.616 8.68433 76.1414 8.68433 75.7196 8.68433C75.245 8.68433 74.9286 9.10538 75.0341 9.78959C75.0341 9.89485 75.0868 10.0527 75.0868 10.158H70.0248C68.7066 10.158 68.232 9.84222 68.0738 9.94748C68.0211 10.0001 67.9683 10.3159 67.9156 10.737C67.9156 10.7896 67.9156 10.7896 67.9156 10.8422C67.9156 11.2633 68.1265 11.4212 68.232 11.4738C68.3374 11.5791 68.4956 11.6317 69.0757 11.6317H75.0868C75.0868 11.8422 75.0868 12.1054 75.0868 12.4212C71.5539 12.4212 70.763 12.3159 70.5521 12.3159C69.8666 12.3159 69.7611 12.5264 69.7611 13.2633V15.3685C69.7611 15.9475 69.9721 16.1054 70.6048 16.1054C70.6048 16.1054 73.3467 16.1054 75.0868 16.1054C75.0868 16.3159 75.0868 16.5791 75.0868 16.7896H70.7103C69.392 16.7896 68.9175 16.4738 68.7593 16.5791C68.7066 16.6317 68.6538 16.9475 68.6011 17.3685C68.6011 17.4212 68.6011 17.4212 68.6011 17.4738C68.6011 17.8949 68.812 18.0527 68.9175 18.1054C69.0229 18.2106 69.1811 18.2633 69.7611 18.2633H75.0868C75.0868 18.5264 75.0868 18.7896 75.0868 19.0527H68.9702C67.652 19.0527 67.1774 18.737 67.0192 18.8422C66.9665 18.8949 66.9138 19.2106 66.861 19.6317C66.861 19.6843 66.861 19.6843 66.861 19.737C66.861 20.158 67.0719 20.3159 67.1774 20.3685C67.2829 20.4738 67.441 20.5264 68.0211 20.5264H75.0868C75.0868 20.7896 75.0868 21.0527 75.0868 21.3159H70.3939C69.0757 21.3159 68.6011 21.0001 68.4429 21.1054C68.3902 21.158 68.3374 21.4738 68.2847 21.8949C68.2847 21.9475 68.2847 21.9475 68.2847 22.0001C68.2847 22.4212 68.4956 22.5791 68.6011 22.6317C68.7066 22.737 68.8647 22.7896 69.4448 22.7896H75.0868C75.0868 23.2633 75.0868 23.5791 75.0868 23.5791C75.0868 23.737 74.9286 23.737 74.665 23.737C74.3486 23.737 73.8213 23.737 73.5049 23.6317C73.3467 23.5791 73.294 23.6843 73.294 23.8422C73.3467 24.0527 73.3995 24.7896 73.8213 24.9475C74.2959 25.1054 75.1395 25.1054 75.8778 25.1054C76.2996 25.1054 76.6687 25.1054 76.8269 24.737C76.9851 24.4738 76.8269 24.158 76.8269 23.5791C76.8269 23.5264 76.8269 23.2106 76.8269 22.737H81.678C82.2053 22.737 82.3108 22.4212 82.3635 22.1054C82.3635 22.1054 82.4689 21.3159 82.5217 20.4738H83.8399C84.3672 20.4738 84.5254 20.4212 84.6309 20.3159C84.7363 20.2633 84.9472 20.1054 84.9472 19.6843C85 19.6843 85 19.6843 85 19.6317ZM80.0961 13.6843C80.3598 13.6317 80.3598 13.737 80.3598 13.9475V14.5791C80.3598 14.737 80.307 14.737 80.1489 14.737C80.0434 14.737 79.4106 14.7896 76.8796 14.7896C76.8796 14.4212 76.8796 14.0527 76.8796 13.6843C78.3033 13.737 79.6216 13.6843 80.0961 13.6843ZM71.7121 14.737C71.5539 14.737 71.5012 14.737 71.5012 14.5791V13.9475C71.5012 13.737 71.5012 13.6317 71.7649 13.6843C72.0812 13.737 73.5049 13.737 75.1396 13.737C75.1396 14.1054 75.1396 14.4738 75.1396 14.8422C72.5031 14.7896 71.8703 14.7896 71.7121 14.737ZM76.8796 18.2633H80.9398C80.9925 18.2633 81.0452 18.3159 81.0452 18.3685L80.9925 19.0527H76.8796C76.8796 18.7896 76.8796 18.5264 76.8796 18.2633ZM80.8343 21.158C80.8343 21.2633 80.7816 21.3159 80.6761 21.3159C80.4652 21.3159 80.2543 21.3159 79.9907 21.3159H76.8796C76.8796 21.0527 76.8796 20.7896 76.8796 20.5264H80.8871L80.8343 21.158Z" fill="#231815"/>
<path d="M50.304 23.1579V18.6316C50.304 17.8947 50.1985 17.2631 49.513 17.2631C49.3548 17.2631 48.5112 17.3158 47.4566 17.3684V13.421H50.2512C50.7785 13.421 50.9367 13.3684 51.0422 13.2631C51.1476 13.2105 51.3586 13.0526 51.3586 12.6316C51.3586 12.5789 51.3586 12.5789 51.3586 12.5263C51.3586 12.1052 51.3058 11.8421 51.2004 11.7368C51.0422 11.5789 50.6203 11.9473 48.933 11.9473H47.4038V10.7894C47.4038 10.3684 47.4038 10.3158 47.4566 10.0526C47.6148 9.26313 47.9311 9.31576 48.0366 9.05261C48.0893 8.73682 47.6148 8.73682 47.4566 8.73682C47.2457 8.73682 46.7711 8.73682 46.3493 8.73682C45.8747 8.73682 45.5583 9.15787 45.6638 9.84208C45.7165 10.0526 45.7165 10.3684 45.7165 10.7368V11.8947H43.9237C42.6055 11.8947 42.1309 11.5789 41.9727 11.6842C41.92 11.7368 41.8672 12.0526 41.8145 12.4737C41.8145 12.5263 41.8145 12.5263 41.8145 12.5789C41.8145 13 42.0254 13.1579 42.1309 13.2105C42.2363 13.3158 42.3945 13.3684 42.9746 13.3684H45.7165V17.3684C44.6619 17.3158 43.7655 17.2631 43.6073 17.2631C42.9218 17.2631 42.8164 17.8947 42.8164 18.6316V23.1579C42.8164 23.7368 43.0273 23.8947 43.66 23.8947C43.66 23.8947 45.031 23.8947 46.5602 23.8947C48.0893 23.8947 49.4603 23.8947 49.4603 23.8947C50.093 23.8421 50.304 23.6842 50.304 23.1579ZM48.6166 22.0526C48.6166 22.2105 48.5639 22.2105 48.4057 22.2105C48.4057 22.2105 47.4566 22.3158 46.5602 22.3158C45.6638 22.3158 44.7146 22.2105 44.7146 22.2105C44.5564 22.2105 44.5037 22.2105 44.5037 22.0526V19.2105C44.5037 19 44.5037 18.9473 44.7674 18.9473C45.031 18.9473 48.0893 18.9473 48.353 18.9473C48.6166 18.9473 48.6166 19 48.6166 19.2105V22.0526Z" fill="#231815"/>
<path d="M60.5862 23.7369C58.8988 22.4738 57.5806 21.1053 56.4733 19.7369C57.5279 18.0001 58.5297 15.8948 59.0043 13.4211H59.2152C59.7425 13.4211 59.9007 13.3685 60.0062 13.2632C60.1116 13.2106 60.3225 13.0527 60.3225 12.6317C60.3225 12.579 60.3225 12.579 60.3225 12.5264C60.3225 12.1053 60.2698 11.8422 60.1644 11.7369C60.0062 11.579 59.5843 11.9474 57.897 11.9474H54.3114C54.3641 11.6843 54.3641 11.4738 54.3641 11.2106C54.3641 10.4738 54.3641 10.3159 54.4168 10.1053C54.575 9.31587 54.8914 9.3685 54.9969 9.10534C55.0496 8.78955 54.575 8.78955 54.4168 8.78955C54.2059 8.78955 53.7314 8.78955 53.3095 8.78955C52.835 8.78955 52.5186 9.2106 52.624 9.89481C52.6768 10.1053 52.6768 10.8948 52.6768 11.579C52.6768 13.579 51.5167 14.4738 50.673 15.158C50.4094 15.3685 50.0403 15.4211 49.8821 15.5264C49.7766 15.579 49.7766 15.6843 49.8294 15.7369C49.8294 15.7369 49.9876 15.9474 50.2512 16.0527C50.4621 16.158 51.2003 16.3159 51.8858 15.7896C51.9913 15.7369 52.044 15.6843 52.1495 15.579C52.4659 16.4211 53.3095 18.0001 54.4696 19.7369C53.5732 21.2106 52.3077 22.7369 50.8312 24.158C50.4621 24.5264 49.9348 24.6843 50.0403 24.8422C50.1458 25.0001 50.4094 25.0527 51.1476 25.0001C51.9386 24.9474 52.4658 24.579 52.7822 24.2632C53.3623 23.7369 54.4168 22.6843 55.5242 21.158C56.526 22.4738 57.6861 23.7896 58.9516 24.8948C59.268 25.158 59.5316 25.2106 59.7425 25.0527L60.5335 24.2106C60.7444 24.0001 60.7444 23.8422 60.5862 23.7369ZM55.366 18.2632C54.5223 17.0001 53.8368 15.7369 53.3622 14.5264C53.6259 14.2106 53.8368 13.8422 53.995 13.4738H57.1588C56.7897 15.0527 56.2096 16.6843 55.366 18.2632Z" fill="#231815"/>
</svg>
