<?xml version="1.0" encoding="utf-8"?>
<!-- Generator: Adobe Illustrator 25.2.3, SVG Export Plug-In . SVG Version: 6.00 Build 0)  -->
<svg version="1.1" id="圖層_1" xmlns="http://www.w3.org/2000/svg" xmlns:xlink="http://www.w3.org/1999/xlink" x="0px" y="0px"
	 viewBox="0 0 62.3 130.1" style="enable-background:new 0 0 62.3 130.1;" xml:space="preserve">
<style type="text/css">
	.st0{display:none;}
	.st1{fill:none;stroke:#000000;stroke-width:1.6176;}
	.st2{fill:none;stroke:#000000;stroke-width:1.6176;stroke-miterlimit:4;}
</style>
<path class="st0" d="M43.8,2.9H14l0.3,1.2h15.3v30.9h0.5c1.2,0,2.1-0.6,2.1-0.9V12.6c4.2,2.3,9.6,6.1,11.7,9.3
	c3.7,1.5,3.9-5.9-11.7-10.1V4.1h16.5c0.6,0,1-0.2,1.1-0.6c-1.5-1.3-3.8-3.1-3.8-3.1L43.8,2.9z M44.1,58.8v5
	c-0.9-0.9-2.2-1.9-2.2-1.9l-1.3,1.6h-3v-2.4c0.7-0.2,1-0.5,1.1-0.9l-3.3-0.4v3.7h-5.8v-4.7H44.1z M40.7,68.5h-3v-3.9h5.7
	c0.3,0,0.6-0.1,0.7-0.2v4.3c-0.9-0.9-2.1-1.9-2.1-1.9L40.7,68.5z M29.7,68.5v-1.1v-3.7l0.2,0.9h5.6v3.9H29.7z M25.2,85.3
	c3.9-4.6,4.4-11.1,4.5-16.3l0.2,0.7h13.7c0.2,0,0.4,0,0.6-0.1v13.2c0,0.6-0.2,0.8-0.9,0.8c-0.7,0-4.3-0.3-4.3-0.3v0.6
	c1.6,0.2,2.5,0.5,3.1,0.9c0.5,0.3,0.7,0.9,0.8,1.6c3.3-0.3,3.7-1.4,3.7-3.4V59.3c0.8-0.2,1.4-0.5,1.7-0.8L45,56.1l-1.3,1.6H30.2
	l-2.8-1.2v11.1c0,5.9-0.1,12.3-2.7,17.3L25.2,85.3z M33.2,79.4v-5.6H40v5.6H33.2z M40.3,82c0.7,0,1.8-0.5,1.8-0.8V74
	c0.5-0.1,1-0.3,1.2-0.6l-2.4-2l-1.2,1.2h-6.3l-2.3-1v11.3h0.3c0.9,0,1.8-0.5,1.8-0.7v-1.7H40V82H40.3z M16.2,56.2
	c1.6,1.4,3.5,3.9,4,5.9c2.6,1.8,4.5-3.6-3.6-6.2L16.2,56.2z M23.6,72.2l-1.5,1.4H19c1.4-2,3.4-4.8,4.5-6.6c1,0,1.9-0.2,2.3-0.6
	l-3-2.6l-1.4,1.5h-7.1l0.3,1.1h6.6c-1.2,2-3.1,4.9-4.4,6.7c-0.6,0.2-1.2,0.4-1.6,0.6l2.1,2l1.1-0.9h3.8c-0.5,3-1.7,6.4-3.3,8.8
	c-1.4,0.9-3.8,3.1-5.4,4.3l2.1,2.7c0.3-0.2,0.3-0.5,0.2-0.8c1-1.6,2.8-3.9,3.6-5c0.3-0.5,0.7-0.5,1.2,0c3.5,4.1,7.3,5.2,15.2,5.2H48
	c0.1-1,0.7-1.8,1.9-2l0-0.5c-4.8,0.2-8.7,0.2-13.3,0.2c-7.6,0-12-0.5-15.4-4c-0.3-0.3-0.5-0.4-0.8-0.5c2.1-2.4,3.5-5.6,4.2-8.3
	c0.9,0,1.2-0.1,1.5-0.4L23.6,72.2z"/>
<g>
	<line class="st1" x1="0" y1="127.1" x2="62.3" y2="127.1"/>
	<line class="st2" x1="0.6" y1="126.8" x2="13.5" y2="113.9"/>
</g>
<path d="M44.3,31.9h-12V15.2h13.5c0.5,0,0.9-0.2,1-0.6c-1.4-1.2-3.6-3-3.6-3l-2,2.5h-8.9V1.4c1-0.2,1.3-0.5,1.4-1.1l-4-0.4v32H14.4
	l0.3,1.2H49c0.6,0,0.9-0.2,1-0.6c-1.4-1.3-3.6-3-3.6-3L44.3,31.9z M44.5,58.9v5c-0.9-0.9-2.2-1.9-2.2-1.9L41,63.6h-3v-2.4
	c0.7-0.2,1-0.5,1.1-0.9l-3.3-0.4v3.7h-5.8v-4.7H44.5z M41,68.6h-3v-3.9h5.7c0.3,0,0.6-0.1,0.7-0.2v4.3c-0.9-0.9-2.1-1.9-2.1-1.9
	L41,68.6z M30.1,68.6v-1.1v-3.7l0.2,0.9h5.6v3.9H30.1z M25.6,85.4c3.9-4.6,4.4-11.1,4.5-16.3l0.2,0.7h13.7c0.2,0,0.4,0,0.6-0.1v13.2
	c0,0.6-0.2,0.8-0.9,0.8c-0.7,0-4.3-0.3-4.3-0.3V84c1.6,0.2,2.5,0.5,3.1,0.9c0.5,0.3,0.7,0.9,0.8,1.6c3.3-0.3,3.7-1.4,3.7-3.4V59.4
	c0.8-0.2,1.4-0.5,1.7-0.8l-3.1-2.4l-1.3,1.6H30.5l-2.8-1.2v11.1c0,5.9-0.1,12.3-2.7,17.3L25.6,85.4z M33.6,79.5v-5.6h6.8v5.6H33.6z
	 M40.6,82.1c0.7,0,1.8-0.5,1.8-0.8v-7.2c0.5-0.1,1-0.3,1.2-0.6l-2.4-2L40,72.8h-6.3l-2.3-1V83h0.3c0.9,0,1.8-0.5,1.8-0.7v-1.7h6.8
	v1.5H40.6z M16.6,56.3c1.6,1.4,3.5,3.9,4,5.9c2.6,1.8,4.5-3.6-3.6-6.2L16.6,56.3z M24,72.3l-1.5,1.4h-3.1c1.4-2,3.4-4.8,4.5-6.6
	c1,0,1.9-0.2,2.3-0.6l-3-2.6l-1.4,1.5h-7.1l0.3,1.1h6.6c-1.2,2-3.1,4.9-4.4,6.7c-0.6,0.2-1.2,0.4-1.6,0.6l2.1,2l1.1-0.9h3.8
	c-0.5,3-1.7,6.4-3.3,8.8C18,84.6,15.5,86.8,14,88l2.1,2.7c0.3-0.2,0.3-0.5,0.2-0.8c1-1.6,2.8-3.9,3.6-5c0.3-0.5,0.7-0.5,1.2,0
	C24.6,89,28.4,90,36.3,90h12.1c0.1-1,0.7-1.8,1.9-2l0-0.5c-4.8,0.2-8.7,0.2-13.3,0.2c-7.6,0-12-0.5-15.4-4c-0.3-0.3-0.5-0.4-0.8-0.5
	c2.1-2.4,3.5-5.6,4.2-8.3c0.9,0,1.2-0.1,1.5-0.4L24,72.3z"/>
</svg>
